# xmcd CD database file
#
# Track frame offsets:
#	150
#	25843
#	42939
#	64794
#	75797
#	107411
#	130244
#	155275
#	186419
#
# Disc length: 2770 seconds
#
# Revision: 0
# Processed by: cddbd v1.5.2PL0 Copyright (c) Steve Scherf et al.
# Submitted via: CDex 1.51
#
DISCID=650ad009
DTITLE=Kevin Kern - Asia Concert [CD2)
DYEAR=2004
DGENRE=New Age
TTITLE0=Blossom On The Wind
TTITLE1=Through The Arbor
TTITLE2=From This Day Forward
TTITLE3=Filled With Light
TTITLE4=Twilight's Embrace
TTITLE5=Ancient Guardians
TTITLE6=Until Tomorrow
TTITLE7=In The Enchanted Garden
TTITLE8=Touch The Sky
EXTD=YEAR: 2004
EXTT0=
EXTT1=
EXTT2=
EXTT3=
EXTT4=
EXTT5=
EXTT6=
EXTT7=
EXTT8=
PLAYORDER=
